<svg xmlns="http://www.w3.org/2000/svg" width="74" height="64" viewBox="0 0 74 64">
  <defs>
    <linearGradient id="coast_grad" x1="0%" y1="0%" x2="0%" y2="100%">
      <stop offset="0%" style="stop-color:#4888B0"/>
      <stop offset="100%" style="stop-color:#306890"/>
    </linearGradient>
  </defs>
  <polygon points="18.5,0 55.5,0 74,32 55.5,64 18.5,64 0,32" fill="url(#coast_grad)" stroke="#205070" stroke-width="1"/>
  <!-- Coastal waves -->
  <path d="M10,22 Q22,17 34,22 Q46,27 58,22 Q66,18 70,22" stroke="#58A0C8" stroke-width="2" fill="none" opacity="0.8"/>
  <path d="M8,35 Q20,30 32,35 Q44,40 56,35 Q65,31 68,35" stroke="#4890B8" stroke-width="1.5" fill="none" opacity="0.7"/>
  <path d="M12,48 Q24,43 36,48 Q48,53 60,48" stroke="#58A0C8" stroke-width="1" fill="none" opacity="0.6"/>
  <!-- Foam hints -->
  <ellipse cx="25" cy="28" rx="4" ry="2" fill="#90C8E0" opacity="0.4"/>
  <ellipse cx="50" cy="42" rx="3" ry="1.5" fill="#88C0D8" opacity="0.3"/>
</svg>
