<svg xmlns="http://www.w3.org/2000/svg" width="74" height="64" viewBox="0 0 74 64">
  <defs>
    <linearGradient id="grassland_grad" x1="0%" y1="0%" x2="0%" y2="100%">
      <stop offset="0%" style="stop-color:#70A850"/>
      <stop offset="100%" style="stop-color:#509030"/>
    </linearGradient>
  </defs>
  <polygon points="18.5,0 55.5,0 74,32 55.5,64 18.5,64 0,32" fill="url(#grassland_grad)" stroke="#408020" stroke-width="1"/>
  <!-- Grass blades -->
  <path d="M12,52 L12,45 M10,52 L9,47 M14,52 L15,46" stroke="#60A040" stroke-width="1.5" stroke-linecap="round"/>
  <path d="M28,50 L28,43 M26,50 L25,45 M30,50 L31,44" stroke="#58983" stroke-width="1.5" stroke-linecap="round"/>
  <path d="M44,52 L44,45 M42,52 L41,47 M46,52 L47,46" stroke="#60A040" stroke-width="1.5" stroke-linecap="round"/>
  <path d="M60,50 L60,43 M58,50 L57,45 M62,50 L63,44" stroke="#589838" stroke-width="1.5" stroke-linecap="round"/>
  <!-- Subtle texture -->
  <circle cx="20" cy="32" r="2" fill="#78B058" opacity="0.5"/>
  <circle cx="50" cy="28" r="2" fill="#70A850" opacity="0.5"/>
  <circle cx="37" cy="40" r="1.5" fill="#78B058" opacity="0.4"/>
</svg>
