<svg xmlns="http://www.w3.org/2000/svg" width="74" height="64" viewBox="0 0 74 64">
  <defs>
    <linearGradient id="marsh_grad" x1="0%" y1="0%" x2="0%" y2="100%">
      <stop offset="0%" style="stop-color:#507850"/>
      <stop offset="100%" style="stop-color:#406040"/>
    </linearGradient>
  </defs>
  <polygon points="18.5,0 55.5,0 74,32 55.5,64 18.5,64 0,32" fill="url(#marsh_grad)" stroke="#304830" stroke-width="1"/>
  <!-- Water patches -->
  <ellipse cx="25" cy="35" rx="8" ry="5" fill="#406878" opacity="0.6"/>
  <ellipse cx="52" cy="42" rx="6" ry="4" fill="#385868" opacity="0.5"/>
  <!-- Reeds -->
  <path d="M18,48 L18,38 M20,48 L20,40 M22,48 L22,36" stroke="#608858" stroke-width="1.5" stroke-linecap="round"/>
  <path d="M48,52 L48,42 M50,52 L50,44 M52,52 L52,40" stroke="#587850" stroke-width="1.5" stroke-linecap="round"/>
  <path d="M35,50 L35,40 M37,50 L37,42" stroke="#608858" stroke-width="1.5" stroke-linecap="round"/>
  <!-- Lily pads -->
  <ellipse cx="28" cy="38" rx="3" ry="2" fill="#508048"/>
  <ellipse cx="50" cy="45" rx="2.5" ry="1.5" fill="#487840"/>
</svg>
