<svg xmlns="http://www.w3.org/2000/svg" width="74" height="64" viewBox="0 0 74 64">
  <defs>
    <linearGradient id="meadow_grad" x1="0%" y1="0%" x2="0%" y2="100%">
      <stop offset="0%" style="stop-color:#90D070"/>
      <stop offset="100%" style="stop-color:#70B050"/>
    </linearGradient>
  </defs>
  <polygon points="18.5,0 55.5,0 74,32 55.5,64 18.5,64 0,32" fill="url(#meadow_grad)" stroke="#508030" stroke-width="1"/>
  <!-- Lush grass -->
  <path d="M12,50 L12,43 M10,50 L9,45 M14,50 L15,44" stroke="#80C060" stroke-width="1.5" stroke-linecap="round"/>
  <path d="M27,48 L27,41 M25,48 L24,43 M29,48 L30,42" stroke="#78B858" stroke-width="1.5" stroke-linecap="round"/>
  <path d="M45,50 L45,43 M43,50 L42,45 M47,50 L48,44" stroke="#80C060" stroke-width="1.5" stroke-linecap="round"/>
  <path d="M60,48 L60,41 M58,48 L57,43 M62,48 L63,42" stroke="#78B858" stroke-width="1.5" stroke-linecap="round"/>
  <!-- Colorful flowers -->
  <circle cx="20" cy="28" r="2.5" fill="#F080A0"/>
  <circle cx="37" cy="34" r="2" fill="#F0E060"/>
  <circle cx="54" cy="30" r="2.5" fill="#A080F0"/>
  <circle cx="30" cy="42" r="2" fill="#F0E060"/>
</svg>
