<svg xmlns="http://www.w3.org/2000/svg" width="74" height="64" viewBox="0 0 74 64">
  <defs>
    <linearGradient id="ocean_grad" x1="0%" y1="0%" x2="0%" y2="100%">
      <stop offset="0%" style="stop-color:#28588A"/>
      <stop offset="100%" style="stop-color:#1A4068"/>
    </linearGradient>
  </defs>
  <polygon points="18.5,0 55.5,0 74,32 55.5,64 18.5,64 0,32" fill="url(#ocean_grad)" stroke="#103050" stroke-width="1"/>
  <!-- Ocean waves -->
  <path d="M8,25 Q18,20 28,25 Q38,30 48,25 Q58,20 66,25" stroke="#3868A0" stroke-width="1.5" fill="none" opacity="0.7"/>
  <path d="M10,38 Q20,33 30,38 Q40,43 50,38 Q60,33 65,38" stroke="#305890" stroke-width="1.5" fill="none" opacity="0.6"/>
  <path d="M12,50 Q22,45 32,50 Q42,55 52,50 Q62,45 68,50" stroke="#3868A0" stroke-width="1" fill="none" opacity="0.5"/>
</svg>
