<svg xmlns="http://www.w3.org/2000/svg" width="74" height="64" viewBox="0 0 74 64">
  <defs>
    <linearGradient id="plains_grad" x1="0%" y1="0%" x2="0%" y2="100%">
      <stop offset="0%" style="stop-color:#80B860"/>
      <stop offset="100%" style="stop-color:#60A040"/>
    </linearGradient>
  </defs>
  <polygon points="18.5,0 55.5,0 74,32 55.5,64 18.5,64 0,32" fill="url(#plains_grad)" stroke="#508030" stroke-width="1"/>
  <!-- Grass texture -->
  <path d="M15,50 L15,45 M13,50 L12,46 M17,50 L18,45" stroke="#70A850" stroke-width="1" stroke-linecap="round"/>
  <path d="M30,48 L30,43 M28,48 L27,44 M32,48 L33,43" stroke="#68A048" stroke-width="1" stroke-linecap="round"/>
  <path d="M45,50 L45,45 M43,50 L42,46 M47,50 L48,45" stroke="#70A850" stroke-width="1" stroke-linecap="round"/>
  <path d="M60,48 L60,43 M58,48 L57,44 M62,48 L63,43" stroke="#68A048" stroke-width="1" stroke-linecap="round"/>
  <!-- Small flowers -->
  <circle cx="25" cy="30" r="2" fill="#E8E080"/>
  <circle cx="50" cy="35" r="2" fill="#E8E080"/>
</svg>
