<svg xmlns="http://www.w3.org/2000/svg" width="74" height="64" viewBox="0 0 74 64">
  <defs>
    <linearGradient id="steppe_grad" x1="0%" y1="0%" x2="0%" y2="100%">
      <stop offset="0%" style="stop-color:#C8B860"/>
      <stop offset="100%" style="stop-color:#A89840"/>
    </linearGradient>
  </defs>
  <polygon points="18.5,0 55.5,0 74,32 55.5,64 18.5,64 0,32" fill="url(#steppe_grad)" stroke="#887830" stroke-width="1"/>
  <!-- Dry grass tufts -->
  <path d="M15,50 L15,44 M13,50 L11,45 M17,50 L19,44" stroke="#B8A850" stroke-width="1.5" stroke-linecap="round"/>
  <path d="M32,48 L32,42 M30,48 L28,43 M34,48 L36,42" stroke="#A89040" stroke-width="1.5" stroke-linecap="round"/>
  <path d="M50,50 L50,44 M48,50 L46,45 M52,50 L54,44" stroke="#B8A850" stroke-width="1.5" stroke-linecap="round"/>
  <!-- Small rocks -->
  <ellipse cx="22" cy="35" rx="3" ry="2" fill="#A09080"/>
  <ellipse cx="55" cy="38" rx="2.5" ry="1.5" fill="#908070"/>
</svg>
