<svg xmlns="http://www.w3.org/2000/svg" viewBox="0 0 32 32">
  <!-- Dense Jungle Icon - Palm-like trees -->
  <g>
    <!-- Left palm -->
    <line x1="8" y1="28" x2="8" y2="14" stroke="#5D4037" stroke-width="2"/>
    <path d="M8,14 Q2,10 4,6" stroke="#00695C" stroke-width="2" fill="none"/>
    <path d="M8,14 Q14,10 12,6" stroke="#00695C" stroke-width="2" fill="none"/>
    <path d="M8,14 Q8,8 8,4" stroke="#00695C" stroke-width="2" fill="none"/>
    <!-- Right palm -->
    <line x1="22" y1="28" x2="22" y2="12" stroke="#5D4037" stroke-width="2"/>
    <path d="M22,12 Q16,8 18,4" stroke="#00695C" stroke-width="2" fill="none"/>
    <path d="M22,12 Q28,8 26,4" stroke="#00695C" stroke-width="2" fill="none"/>
    <path d="M22,12 Q22,6 22,2" stroke="#00695C" stroke-width="2" fill="none"/>
    <!-- Center small palm -->
    <line x1="15" y1="28" x2="15" y2="18" stroke="#5D4037" stroke-width="1.5"/>
    <path d="M15,18 Q11,15 12,12" stroke="#00897B" stroke-width="1.5" fill="none"/>
    <path d="M15,18 Q19,15 18,12" stroke="#00897B" stroke-width="1.5" fill="none"/>
  </g>
</svg>
