<svg xmlns="http://www.w3.org/2000/svg" viewBox="0 0 64 64">
  <defs>
    <linearGradient id="pa" x1="0%" y1="0%" x2="100%" y2="100%">
      <stop offset="0%" style="stop-color:#657b3f"/>
      <stop offset="100%" style="stop-color:#455b2f"/>
    </linearGradient>
  </defs>
  <circle cx="32" cy="32" r="30" fill="url(#pa)" stroke="#253b1f" stroke-width="2"/>
  <!-- Clipboard -->
  <rect x="16" y="14" width="32" height="40" rx="2" fill="#deb887" stroke="#8b7355" stroke-width="1.5"/>
  <rect x="26" y="10" width="12" height="8" rx="2" fill="#8b7355"/>
  <circle cx="32" cy="14" r="2" fill="#deb887"/>
  <!-- Checklist lines -->
  <rect x="20" y="22" width="4" height="4" fill="none" stroke="#333" stroke-width="1.5"/>
  <line x1="20" y1="24" x2="24" y2="24" stroke="#228b22" stroke-width="2"/>
  <line x1="22" y1="22" x2="22" y2="26" stroke="#228b22" stroke-width="2"/>
  <line x1="28" y1="24" x2="42" y2="24" stroke="#333" stroke-width="1.5"/>
  
  <rect x="20" y="32" width="4" height="4" fill="none" stroke="#333" stroke-width="1.5"/>
  <line x1="20" y1="34" x2="24" y2="34" stroke="#228b22" stroke-width="2"/>
  <line x1="22" y1="32" x2="22" y2="36" stroke="#228b22" stroke-width="2"/>
  <line x1="28" y1="34" x2="40" y2="34" stroke="#333" stroke-width="1.5"/>
  
  <rect x="20" y="42" width="4" height="4" fill="none" stroke="#333" stroke-width="1.5"/>
  <line x1="28" y1="44" x2="38" y2="44" stroke="#333" stroke-width="1.5"/>
</svg>
