<svg xmlns="http://www.w3.org/2000/svg" viewBox="0 0 64 64">
  <defs>
    <linearGradient id="wf" x1="0%" y1="0%" x2="100%" y2="100%">
      <stop offset="0%" style="stop-color:#ab1010"/>
      <stop offset="100%" style="stop-color:#6b0000"/>
    </linearGradient>
  </defs>
  <circle cx="32" cy="32" r="30" fill="url(#wf)" stroke="#3b0000" stroke-width="2"/>
  <!-- Crossed swords -->
  <!-- Sword 1 -->
  <rect x="14" y="30" width="36" height="4" fill="#c0c0c0" stroke="#808080" stroke-width="1" transform="rotate(-45 32 32)"/>
  <rect x="8" y="28" width="8" height="8" rx="1" fill="#8b4513" stroke="#5a2d0a" stroke-width="1" transform="rotate(-45 12 32)"/>
  <!-- Sword 2 -->
  <rect x="14" y="30" width="36" height="4" fill="#c0c0c0" stroke="#808080" stroke-width="1" transform="rotate(45 32 32)"/>
  <rect x="48" y="28" width="8" height="8" rx="1" fill="#8b4513" stroke="#5a2d0a" stroke-width="1" transform="rotate(45 52 32)"/>
  <!-- Shield in center -->
  <path d="M32 22 L42 26 L42 38 L32 46 L22 38 L22 26 Z" fill="#ffd700" stroke="#b8860b" stroke-width="1.5"/>
  <path d="M32 26 L38 28 L38 36 L32 42 L26 36 L26 28 Z" fill="#dc143c"/>
</svg>
