<svg xmlns="http://www.w3.org/2000/svg" viewBox="0 0 64 64">
  <!-- Hunter's Lodge - rustic cabin with antlers -->
  <defs>
    <linearGradient id="lodgeRoofGrad" x1="0%" y1="0%" x2="0%" y2="100%">
      <stop offset="0%" style="stop-color:#4A7023"/>
      <stop offset="100%" style="stop-color:#2F4A17"/>
    </linearGradient>
    <linearGradient id="lodgeWallGrad" x1="0%" y1="0%" x2="0%" y2="100%">
      <stop offset="0%" style="stop-color:#8B5A2B"/>
      <stop offset="100%" style="stop-color:#5C3D1E"/>
    </linearGradient>
  </defs>
  
  <!-- Shadow -->
  <ellipse cx="32" cy="56" rx="20" ry="5" fill="rgba(0,0,0,0.2)"/>
  
  <!-- Cabin walls (log cabin style) -->
  <rect x="12" y="34" width="40" height="18" rx="1" fill="url(#lodgeWallGrad)" stroke="#3D2815" stroke-width="1"/>
  
  <!-- Log texture -->
  <line x1="12" y1="38" x2="52" y2="38" stroke="#3D2815" stroke-width="1" opacity="0.5"/>
  <line x1="12" y1="42" x2="52" y2="42" stroke="#3D2815" stroke-width="1" opacity="0.5"/>
  <line x1="12" y1="46" x2="52" y2="46" stroke="#3D2815" stroke-width="1" opacity="0.5"/>
  
  <!-- Roof -->
  <polygon points="32,14 8,36 56,36" fill="url(#lodgeRoofGrad)" stroke="#1F3010" stroke-width="1"/>
  
  <!-- Antlers mounted on roof -->
  <g transform="translate(32, 12)">
    <!-- Left antler -->
    <path d="M-2,0 Q-8,-6 -12,-4 M-6,-4 Q-10,-8 -14,-6" stroke="#D2B48C" stroke-width="2" fill="none" stroke-linecap="round"/>
    <!-- Right antler -->
    <path d="M2,0 Q8,-6 12,-4 M6,-4 Q10,-8 14,-6" stroke="#D2B48C" stroke-width="2" fill="none" stroke-linecap="round"/>
    <!-- Skull plate -->
    <ellipse cx="0" cy="2" rx="4" ry="2" fill="#E8DCC8" stroke="#B8A080" stroke-width="0.5"/>
  </g>
  
  <!-- Door -->
  <rect x="26" y="40" width="12" height="12" rx="1" fill="#2C1810" stroke="#1A0F0A" stroke-width="0.5"/>
  <circle cx="36" cy="46" r="1" fill="#8B6914"/>
  
  <!-- Window -->
  <rect x="16" y="38" width="6" height="6" rx="0.5" fill="#1A0F0A" stroke="#3D2815" stroke-width="0.5"/>
  <line x1="19" y1="38" x2="19" y2="44" stroke="#3D2815" stroke-width="0.5"/>
  <line x1="16" y1="41" x2="22" y2="41" stroke="#3D2815" stroke-width="0.5"/>
  
  <!-- Hanging furs/pelts on wall -->
  <ellipse cx="46" cy="42" rx="3" ry="4" fill="#8B7355" stroke="#5C4D3A" stroke-width="0.5"/>
</svg>
