<svg xmlns="http://www.w3.org/2000/svg" viewBox="0 0 64 64">
  <!-- Fiber icon - bundled plant fibers/reeds -->
  <defs>
    <linearGradient id="fiberGrad" x1="0%" y1="0%" x2="100%" y2="100%">
      <stop offset="0%" style="stop-color:#E8D4A8"/>
      <stop offset="100%" style="stop-color:#B8956C"/>
    </linearGradient>
    <linearGradient id="bindingGrad" x1="0%" y1="0%" x2="100%" y2="0%">
      <stop offset="0%" style="stop-color:#8B6914"/>
      <stop offset="100%" style="stop-color:#5C4A10"/>
    </linearGradient>
  </defs>
  
  <!-- Individual fiber strands - left bundle -->
  <path d="M16,56 Q14,40 18,20 Q20,10 22,8" stroke="#D2B48C" stroke-width="2.5" fill="none" stroke-linecap="round"/>
  <path d="M20,56 Q18,42 20,24 Q21,14 24,10" stroke="#C4A67A" stroke-width="2.5" fill="none" stroke-linecap="round"/>
  <path d="M24,56 Q23,44 24,28 Q25,18 28,12" stroke="#D2B48C" stroke-width="2.5" fill="none" stroke-linecap="round"/>
  
  <!-- Individual fiber strands - center bundle -->
  <path d="M28,56 Q27,38 30,18 Q32,8 32,6" stroke="#DCC49C" stroke-width="2.5" fill="none" stroke-linecap="round"/>
  <path d="M32,56 Q32,40 32,22 Q32,12 34,8" stroke="#C4A67A" stroke-width="2.5" fill="none" stroke-linecap="round"/>
  <path d="M36,56 Q36,42 34,26 Q33,16 36,10" stroke="#D2B48C" stroke-width="2.5" fill="none" stroke-linecap="round"/>
  
  <!-- Individual fiber strands - right bundle -->
  <path d="M40,56 Q42,40 40,22 Q39,12 42,8" stroke="#DCC49C" stroke-width="2.5" fill="none" stroke-linecap="round"/>
  <path d="M44,56 Q45,44 43,28 Q42,18 44,12" stroke="#C4A67A" stroke-width="2.5" fill="none" stroke-linecap="round"/>
  <path d="M48,56 Q50,42 46,24 Q44,14 46,10" stroke="#D2B48C" stroke-width="2.5" fill="none" stroke-linecap="round"/>
  
  <!-- Binding cord around bundle -->
  <ellipse cx="32" cy="44" rx="18" ry="4" fill="none" stroke="url(#bindingGrad)" stroke-width="3"/>
  <ellipse cx="32" cy="32" rx="16" ry="3.5" fill="none" stroke="url(#bindingGrad)" stroke-width="3"/>
  
  <!-- Loose fiber wisps at top -->
  <path d="M22,8 Q20,4 22,2" stroke="#D2B48C" stroke-width="1.5" fill="none" stroke-linecap="round"/>
  <path d="M32,6 Q34,2 32,0" stroke="#C4A67A" stroke-width="1.5" fill="none" stroke-linecap="round"/>
  <path d="M42,8 Q44,4 42,2" stroke="#DCC49C" stroke-width="1.5" fill="none" stroke-linecap="round"/>
</svg>
