<svg xmlns="http://www.w3.org/2000/svg" viewBox="0 0 64 64">
  <!-- Furs icon - folded animal pelt -->
  <defs>
    <linearGradient id="furMainGrad" x1="0%" y1="0%" x2="100%" y2="100%">
      <stop offset="0%" style="stop-color:#B8956C"/>
      <stop offset="100%" style="stop-color:#7A5C30"/>
    </linearGradient>
    <linearGradient id="furInnerGrad" x1="0%" y1="0%" x2="0%" y2="100%">
      <stop offset="0%" style="stop-color:#D4C4A0"/>
      <stop offset="100%" style="stop-color:#C4A670"/>
    </linearGradient>
  </defs>

  <!-- Main pelt shape - draped hide -->
  <path d="M12,16 Q16,10 24,8 Q32,6 40,8 Q48,10 52,16 Q54,24 52,36 Q50,46 48,54 Q40,58 32,58 Q24,58 16,54 Q14,46 12,36 Q10,24 12,16 Z" fill="url(#furMainGrad)" stroke="#5C4530" stroke-width="1.5"/>

  <!-- Inner hide (lighter, visible at fold) -->
  <path d="M18,18 Q24,14 32,12 Q40,14 46,18 Q44,26 42,34 Q38,30 32,28 Q26,30 22,34 Q20,26 18,18 Z" fill="url(#furInnerGrad)" stroke="#8B7355" stroke-width="0.5"/>

  <!-- Fur texture lines (outer pelt) -->
  <path d="M14,22 Q16,20 18,22" stroke="#6B5230" stroke-width="0.8" fill="none"/>
  <path d="M16,28 Q18,26 20,28" stroke="#6B5230" stroke-width="0.8" fill="none"/>
  <path d="M14,34 Q16,32 18,34" stroke="#6B5230" stroke-width="0.8" fill="none"/>
  <path d="M18,40 Q20,38 22,40" stroke="#6B5230" stroke-width="0.8" fill="none"/>
  <path d="M22,46 Q24,44 26,46" stroke="#6B5230" stroke-width="0.8" fill="none"/>

  <path d="M46,22 Q48,20 50,22" stroke="#6B5230" stroke-width="0.8" fill="none"/>
  <path d="M44,28 Q46,26 48,28" stroke="#6B5230" stroke-width="0.8" fill="none"/>
  <path d="M46,34 Q48,32 50,34" stroke="#6B5230" stroke-width="0.8" fill="none"/>
  <path d="M42,40 Q44,38 46,40" stroke="#6B5230" stroke-width="0.8" fill="none"/>
  <path d="M38,46 Q40,44 42,46" stroke="#6B5230" stroke-width="0.8" fill="none"/>

  <path d="M30,48 Q32,46 34,48" stroke="#6B5230" stroke-width="0.8" fill="none"/>
  <path d="M26,52 Q28,50 30,52" stroke="#6B5230" stroke-width="0.8" fill="none"/>
  <path d="M34,52 Q36,50 38,52" stroke="#6B5230" stroke-width="0.8" fill="none"/>

  <!-- Paw/edge detail at bottom -->
  <path d="M20,54 Q22,56 24,54" stroke="#5C4530" stroke-width="1" fill="none" stroke-linecap="round"/>
  <path d="M28,56 Q30,58 32,56" stroke="#5C4530" stroke-width="1" fill="none" stroke-linecap="round"/>
  <path d="M36,56 Q38,58 40,56" stroke="#5C4530" stroke-width="1" fill="none" stroke-linecap="round"/>
  <path d="M44,54 Q42,56 40,54" stroke="#5C4530" stroke-width="1" fill="none" stroke-linecap="round"/>
</svg>
